<svg width="33" height="33" viewBox="0 0 33 33" fill="none" xmlns="http://www.w3.org/2000/svg">
<rect width="33" height="33" rx="6.82759" fill="#FBF0F3"/>
<path fill-rule="evenodd" clip-rule="evenodd" d="M16.5744 10.3961C20.3823 8.44678 22.711 9.5663 23.687 11.4856C24.2087 12.5115 24.6287 14.3313 24.3794 16.2302H20.8507L20.39 15.2703C20.1994 14.8169 19.5614 14.7693 19.3132 15.207L18.9372 15.8692L18.1672 12.8063C18.0433 12.1896 17.1609 12.1529 16.9944 12.7668L16.1697 15.801L15.8966 14.7904C15.7752 14.3343 15.1868 14.1852 14.8663 14.5474L13.373 16.2302H8.76912C8.51985 14.3313 8.93989 12.5115 9.46171 11.4856C10.4376 9.5663 12.7662 8.44678 16.5744 10.3961ZM24.1267 17.4359C23.3107 20.2202 19.1046 23.4699 16.5744 23.9181C14.0442 23.4697 9.83806 20.2204 9.02204 17.4361H13.6411C13.8394 17.4361 14.0153 17.3402 14.1251 17.1927L15.0245 16.1792L15.5852 18.2649C15.7442 18.8597 16.5883 18.8537 16.7482 18.2669L17.5539 15.3047L18.1352 17.6172C18.2714 18.1623 19.0109 18.2339 19.2579 17.7404L19.7919 16.7993L19.9325 17.0921C20.0355 17.3076 20.2502 17.4335 20.4742 17.4337L24.1267 17.4359Z" fill="#CA6B6E"/>
</svg>
