<svg width="33" height="34" viewBox="0 0 33 34" fill="none" xmlns="http://www.w3.org/2000/svg">
<rect width="32.4104" height="33.9538" rx="6.7056" fill="#B6FFC1"/>
<path fill-rule="evenodd" clip-rule="evenodd" d="M14.8438 8.75114H13.9271V9.66781H16.2187V10.5845H13.9271V11.5392C15.2277 11.7574 16.2187 12.8885 16.2187 14.2512V15.1678H10.7188V14.2512C10.7188 12.8885 11.7098 11.7574 13.0104 11.5392V10.5845H12.0155C11.8268 11.1185 11.3174 11.5012 10.7188 11.5012C9.95936 11.5012 9.34375 10.8855 9.34375 10.1261C9.34375 9.36675 9.95936 8.75114 10.7188 8.75114C11.3174 8.75114 11.8268 9.13376 12.0155 9.66781H13.0104V8.75114H12.0938V7.83447H14.8438V8.75114ZM10.7188 16.0845V25.7095C10.7188 25.9626 10.9239 26.1678 11.1771 26.1678H15.7604C16.0136 26.1678 16.2187 25.9626 16.2187 25.7095V16.0845H10.7188ZM10.7188 9.66781C10.4656 9.66781 10.2604 9.87301 10.2604 10.1261C10.2604 10.3793 10.4656 10.5845 10.7188 10.5845C10.9719 10.5845 11.1771 10.3793 11.1771 10.1261C11.1771 9.87301 10.9719 9.66781 10.7188 9.66781ZM18.0521 15.6262C18.0521 14.6136 18.8729 13.7928 19.8854 13.7928C20.8979 13.7928 21.7187 14.6136 21.7187 15.6262V18.3762C21.7187 19.3887 20.8979 20.2095 19.8854 20.2095C18.8729 20.2095 18.0521 19.3887 18.0521 18.3762V15.6262ZM19.8854 14.7095C19.3791 14.7095 18.9688 15.1199 18.9688 15.6262V18.3762C18.9688 18.8824 19.3791 19.2928 19.8854 19.2928C20.3917 19.2928 20.8021 18.8824 20.8021 18.3762V15.6262C20.8021 15.1199 20.3917 14.7095 19.8854 14.7095ZM22.1771 17.9178H23.5521C23.8052 17.9178 24.0104 18.123 24.0104 18.3762C24.0104 18.6293 23.8052 18.8345 23.5521 18.8345C22.7927 18.8345 22.1771 19.4501 22.1771 20.2095V21.1262C22.1771 21.3793 22.3823 21.5845 22.6354 21.5845H24.9271V20.6678H23.0937V20.2095C23.0937 19.9564 23.2989 19.7512 23.5521 19.7512C24.3115 19.7512 24.9271 19.1355 24.9271 18.3762C24.9271 17.6167 24.3115 17.0012 23.5521 17.0012H22.1771V17.9178Z" fill="#3B8045"/>
</svg>
