<svg width="33" height="34" viewBox="0 0 33 34" fill="none" xmlns="http://www.w3.org/2000/svg">
<rect width="33" height="33.3028" rx="6.82759" fill="#FFF7AE"/>
<g clip-path="url(#clip0_303_1222)">
<path fill-rule="evenodd" clip-rule="evenodd" d="M26.1336 18.4478C26.1336 18.5825 26.0244 18.6918 25.8896 18.6918H23.6942V19.6675H25.4018C25.5365 19.6675 25.6457 19.7768 25.6457 19.9115V20.3994C25.6457 20.5341 25.5365 20.6433 25.4018 20.6433H21.2804V21.6191H23.8408C22.4503 22.7277 20.3172 22.8505 18.7308 21.9766L15.8795 20.4057L15.4087 21.2604L18.26 22.8312C20.1857 23.8921 22.7856 23.7524 24.5079 22.3344C24.752 22.1334 25.0033 21.9015 25.266 21.6191H25.4018C26.0754 21.6191 26.6215 21.073 26.6215 20.3994V19.9115C26.6215 19.759 26.5935 19.613 26.5423 19.4784C26.8832 19.2621 27.1094 18.8814 27.1094 18.4478V17.9599C27.1094 17.5264 26.8832 17.1457 26.5423 16.9294C26.5935 16.7948 26.6215 16.6488 26.6215 16.4963V16.0084C26.6215 15.4183 26.2024 14.9261 25.6457 14.8131V14.4176C25.6457 13.6533 25.0576 13.0176 24.2955 12.9583L22.7373 12.8372H22.4188C19.9825 12.8372 17.5818 13.4231 15.4193 14.5454L15.8689 15.4115C17.8924 14.3612 20.1389 13.8129 22.4188 13.8129H22.6995L24.2199 13.9312C24.4739 13.9509 24.6699 14.1628 24.6699 14.4176V14.7887H23.6942V15.7645H25.4018C25.5365 15.7645 25.6457 15.8737 25.6457 16.0084V16.4963C25.6457 16.631 25.5365 16.7402 25.4018 16.7402H23.6942V17.716H25.8896C26.0244 17.716 26.1336 17.8252 26.1336 17.9599V18.4478Z" fill="#968700"/>
<path fill-rule="evenodd" clip-rule="evenodd" d="M8.56958 15.2766H12.9605V16.2524H8.56958V15.2766Z" fill="#968700"/>
<path fill-rule="evenodd" clip-rule="evenodd" d="M8.56958 20.1554H12.9605V21.1312H8.56958V20.1554Z" fill="#968700"/>
<path fill-rule="evenodd" clip-rule="evenodd" d="M12.4727 10.3977C12.4727 9.58932 13.1279 8.93402 13.9363 8.93402C14.7447 8.93402 15.4 9.58932 15.4 10.3977V14.3007C15.4 15.1091 14.7447 15.7644 13.9363 15.7644C13.1279 15.7644 12.4727 15.1091 12.4727 14.3007V10.3977ZM14.4242 10.6686C14.4242 10.9381 14.2058 11.1565 13.9363 11.1565C13.6668 11.1565 13.4484 10.9381 13.4484 10.6686C13.4484 10.3992 13.6668 10.1808 13.9363 10.1808C14.2058 10.1808 14.4242 10.3992 14.4242 10.6686ZM13.9363 12.8371C14.2058 12.8371 14.4242 12.6187 14.4242 12.3492C14.4242 12.0797 14.2058 11.8613 13.9363 11.8613C13.6668 11.8613 13.4484 12.0797 13.4484 12.3492C13.4484 12.6187 13.6668 12.8371 13.9363 12.8371Z" fill="#968700"/>
<path fill-rule="evenodd" clip-rule="evenodd" d="M12.4727 10.3977C12.4727 9.58932 13.1279 8.93402 13.9363 8.93402C14.7447 8.93402 15.4 9.58932 15.4 10.3977V14.3007C15.4 15.1091 14.7447 15.7644 13.9363 15.7644C13.1279 15.7644 12.4727 15.1091 12.4727 14.3007V10.3977ZM14.4242 13.7296V14.3007C14.4242 14.5702 14.2058 14.7886 13.9363 14.7886C13.6668 14.7886 13.4484 14.5702 13.4484 14.3007V13.7296C13.601 13.7835 13.7653 13.8129 13.9363 13.8129C14.1074 13.8129 14.2716 13.7835 14.4242 13.7296ZM14.3404 12.0758C14.3933 12.1538 14.4242 12.2479 14.4242 12.3492C14.4242 12.6187 14.2058 12.8371 13.9363 12.8371C13.6668 12.8371 13.4484 12.6187 13.4484 12.3492C13.4484 12.2479 13.4793 12.1538 13.5322 12.0758C13.6199 11.9464 13.7682 11.8613 13.9363 11.8613C14.1044 11.8613 14.2527 11.9464 14.3404 12.0758ZM14.3404 10.9421C14.3933 10.8641 14.4242 10.77 14.4242 10.6686C14.4242 10.3992 14.2058 10.1808 13.9363 10.1808C13.6668 10.1808 13.4484 10.3992 13.4484 10.6686C13.4484 10.77 13.4793 10.8641 13.5322 10.9421C13.6199 11.0715 13.7682 11.1565 13.9363 11.1565C14.1044 11.1565 14.2527 11.0715 14.3404 10.9421Z" fill="#968700"/>
<path fill-rule="evenodd" clip-rule="evenodd" d="M11.4968 15.2765C11.4968 14.7376 11.9337 14.3008 12.4726 14.3008H15.3999C15.9388 14.3008 16.3757 14.7376 16.3757 15.2765V21.1312C16.3757 21.5005 16.1704 21.8219 15.8678 21.9876C15.6314 22.117 15.3999 22.3253 15.3999 22.5948C15.3999 22.8643 15.1815 23.0827 14.912 23.0827H12.9605C12.691 23.0827 12.4726 22.8643 12.4726 22.5948C12.4726 22.3253 12.2411 22.117 12.0047 21.9876C11.7021 21.8219 11.4968 21.5005 11.4968 21.1312V15.2765ZM13.2044 15.7644C13.0697 15.7644 12.9605 15.8737 12.9605 16.0084V20.3993C12.9605 20.534 13.0697 20.6433 13.2044 20.6433H14.6681C14.8028 20.6433 14.912 20.534 14.912 20.3993V16.0084C14.912 15.8737 14.8028 15.7644 14.6681 15.7644H13.2044Z" fill="#968700"/>
<path fill-rule="evenodd" clip-rule="evenodd" d="M13.0755 21.6123C13.1849 21.7415 13.2924 21.9075 13.3638 22.1069H14.5087C14.5801 21.9075 14.6876 21.7415 14.797 21.6123M12.4726 14.3008C11.9337 14.3008 11.4968 14.7376 11.4968 15.2765V21.1312C11.4968 21.5005 11.7021 21.8219 12.0047 21.9876C12.2411 22.117 12.4726 22.3253 12.4726 22.5948C12.4726 22.8643 12.691 23.0827 12.9605 23.0827H14.912C15.1815 23.0827 15.3999 22.8643 15.3999 22.5948C15.3999 22.3253 15.6314 22.117 15.8678 21.9876C16.1704 21.8219 16.3757 21.5005 16.3757 21.1312V15.2765C16.3757 14.7376 15.9388 14.3008 15.3999 14.3008H12.4726ZM12.9605 16.0084C12.9605 15.8737 13.0697 15.7644 13.2044 15.7644H14.6681C14.8028 15.7644 14.912 15.8737 14.912 16.0084V20.3993C14.912 20.534 14.8028 20.6433 14.6681 20.6433H13.2044C13.0697 20.6433 12.9605 20.534 12.9605 20.3993V16.0084Z" fill="#968700"/>
</g>
<defs>
<clipPath id="clip0_303_1222">
<rect width="23.4184" height="23.4184" fill="white" transform="translate(5.64233 5.51892)"/>
</clipPath>
</defs>
</svg>
