<svg width="29" height="28" viewBox="0 0 29 28" fill="none" xmlns="http://www.w3.org/2000/svg">
<path d="M11.1436 12.7836C11.0279 12.772 10.889 12.772 10.7617 12.7836C8.00805 12.691 5.82129 10.4349 5.82129 7.65802C5.82129 4.82333 8.11218 2.52087 10.9584 2.52087C13.7931 2.52087 16.0956 4.82333 16.0956 7.65802C16.084 10.4349 13.8972 12.691 11.1436 12.7836Z" stroke="#1d1d1d" stroke-width="1.73552" stroke-linecap="round" stroke-linejoin="round"/>
<path d="M19.5315 4.83423C21.7761 4.83423 23.5811 6.65074 23.5811 8.88378C23.5811 11.0705 21.8455 12.8523 19.6819 12.9333C19.5894 12.9218 19.4852 12.9218 19.3811 12.9333" stroke="#1d1d1d" stroke-width="1.73552" stroke-linecap="round" stroke-linejoin="round"/>
<path d="M5.35877 17.0525C2.5588 18.9268 2.5588 21.9814 5.35877 23.8442C8.54056 25.9731 13.7587 25.9731 16.9405 23.8442C19.7405 21.9698 19.7405 18.9153 16.9405 17.0525C13.7703 14.9351 8.55213 14.9351 5.35877 17.0525Z" stroke="#1d1d1d" stroke-width="1.73552" stroke-linecap="round" stroke-linejoin="round"/>
<path d="M21.7649 23.3471C22.5979 23.1736 23.3847 22.838 24.0326 22.3405C25.8376 20.9868 25.8376 18.7538 24.0326 17.4001C23.3963 16.9141 22.6211 16.5902 21.7996 16.405" stroke="#1d1d1d" stroke-width="1.73552" stroke-linecap="round" stroke-linejoin="round"/>
</svg>
