<svg width="34" height="34" viewBox="0 0 34 34" fill="none" xmlns="http://www.w3.org/2000/svg">
<rect width="34" height="34" rx="7.03448" fill="#F8DEBD"/>
<path d="M11.2853 10.3594C11.8074 10.3594 12.2307 9.93617 12.2307 9.41403C12.2307 8.8919 11.8074 8.46863 11.2853 8.46863C10.9353 8.46863 10.6298 8.65875 10.4664 8.94133H10.3399C9.55669 8.94133 8.92177 9.57624 8.92177 10.3594V14.6138C8.66072 14.6138 8.44685 14.8259 8.47055 15.0859C8.58045 16.2918 9.10881 17.4273 9.97206 18.2906C10.6051 18.9235 11.3845 19.3765 12.2307 19.6164V20.7589C12.2307 21.3765 12.6254 21.9018 13.1763 22.0964C13.1964 23.9718 14.723 25.4859 16.6032 25.4859C18.496 25.4859 20.0303 23.9516 20.0303 22.0588V20.168C20.0303 19.189 20.8239 18.3954 21.8029 18.3954C22.782 18.3954 23.5756 19.189 23.5756 20.168V21.3123C23.0248 21.507 22.6302 22.0323 22.6302 22.6497C22.6302 23.433 23.2651 24.0678 24.0483 24.0678C24.8315 24.0678 25.4664 23.433 25.4664 22.6497C25.4664 22.0323 25.0718 21.507 24.521 21.3123V20.168C24.521 18.6669 23.3041 17.45 21.8029 17.45C20.3018 17.45 19.0849 18.6669 19.0849 20.168V22.0588C19.0849 23.4295 17.9738 24.5405 16.6032 24.5405C15.2451 24.5405 14.1418 23.4496 14.1218 22.0962C14.6724 21.9015 15.0669 21.3763 15.0669 20.7589V19.6164C15.9132 19.3765 16.6926 18.9235 17.3256 18.2906C18.1888 17.4273 18.7172 16.2918 18.8271 15.0859C18.8508 14.8259 18.6369 14.6138 18.3758 14.6138V10.3594C18.3758 9.57624 17.741 8.94133 16.9577 8.94133H16.8312C16.6678 8.65875 16.3623 8.46863 16.0123 8.46863C15.4902 8.46863 15.0669 8.8919 15.0669 9.41403C15.0669 9.93617 15.4902 10.3594 16.0123 10.3594C16.3623 10.3594 16.6678 10.1693 16.8312 9.88674H16.9577C17.2188 9.88674 17.4304 10.0984 17.4304 10.3594V14.6138H17.5295C17.2684 14.6138 17.0601 14.8264 17.0241 15.085C16.9222 15.8147 16.5856 16.4965 16.0586 17.0236C15.4195 17.6627 14.5527 18.0217 13.6488 18.0217C12.745 18.0217 11.8782 17.6627 11.2391 17.0236C10.712 16.4965 10.3755 15.8147 10.2736 15.085C10.2375 14.8264 10.0293 14.6138 9.76818 14.6138H9.86718V10.3594C9.86718 10.0984 10.0788 9.88674 10.3399 9.88674H10.4664C10.6298 10.1693 10.9353 10.3594 11.2853 10.3594Z" fill="#BD6A00"/>
</svg>
